<mxfile host="65bd71144e">
    <diagram id="JBASUnGywxE74jzo6m2Q" name="Page-1">
        <mxGraphModel dx="1090" dy="1001" grid="1" gridSize="10" guides="1" tooltips="1" connect="1" arrows="1" fold="1" page="1" pageScale="1" pageWidth="827" pageHeight="1169" math="0" shadow="0">
            <root>
                <mxCell id="0"/>
                <mxCell id="1" parent="0"/>
                <mxCell id="30" value="" style="shape=table;startSize=0;container=1;collapsible=0;childLayout=tableLayout;fontColor=none;noLabel=1;" parent="1" vertex="1">
                    <mxGeometry x="80" y="110" width="1090" height="787" as="geometry"/>
                </mxCell>
                <mxCell id="66" style="shape=tableRow;horizontal=0;startSize=0;swimlaneHead=0;swimlaneBody=0;strokeColor=inherit;top=0;left=0;bottom=0;right=0;collapsible=0;dropTarget=0;fillColor=none;points=[[0,0.5],[1,0.5]];portConstraint=eastwest;fontColor=default;" parent="30" vertex="1">
                    <mxGeometry width="1090" height="99" as="geometry"/>
                </mxCell>
                <mxCell id="67" style="shape=partialRectangle;html=1;whiteSpace=wrap;connectable=0;strokeColor=inherit;overflow=hidden;fillColor=none;top=0;left=0;bottom=0;right=0;pointerEvents=1;" parent="66" vertex="1">
                    <mxGeometry width="155" height="99" as="geometry">
                        <mxRectangle width="155" height="99" as="alternateBounds"/>
                    </mxGeometry>
                </mxCell>
                <mxCell id="68" value="Продажи в сети отделений" style="shape=partialRectangle;html=1;whiteSpace=wrap;connectable=0;strokeColor=inherit;overflow=hidden;fillColor=none;top=0;left=0;bottom=0;right=0;pointerEvents=1;" parent="66" vertex="1">
                    <mxGeometry x="155" width="157" height="99" as="geometry">
                        <mxRectangle width="157" height="99" as="alternateBounds"/>
                    </mxGeometry>
                </mxCell>
                <mxCell id="69" value="Продажи через&#xa;кол-центен" style="shape=partialRectangle;html=1;whiteSpace=wrap;connectable=0;strokeColor=inherit;overflow=hidden;fillColor=none;top=0;left=0;bottom=0;right=0;pointerEvents=1;" parent="66" vertex="1">
                    <mxGeometry x="312" width="155" height="99" as="geometry">
                        <mxRectangle width="155" height="99" as="alternateBounds"/>
                    </mxGeometry>
                </mxCell>
                <mxCell id="70" value="Digital-оповещения&#xa;клиентов" style="shape=partialRectangle;html=1;whiteSpace=wrap;connectable=0;strokeColor=inherit;overflow=hidden;fillColor=none;top=0;left=0;bottom=0;right=0;pointerEvents=1;" parent="66" vertex="1">
                    <mxGeometry x="467" width="156" height="99" as="geometry">
                        <mxRectangle width="156" height="99" as="alternateBounds"/>
                    </mxGeometry>
                </mxCell>
                <mxCell id="71" value="Обслуживание&#xa;депозитных&#xa;процессов" style="shape=partialRectangle;html=1;whiteSpace=wrap;connectable=0;strokeColor=inherit;overflow=hidden;fillColor=none;top=0;left=0;bottom=0;right=0;pointerEvents=1;" parent="66" vertex="1">
                    <mxGeometry x="623" width="156" height="99" as="geometry">
                        <mxRectangle width="156" height="99" as="alternateBounds"/>
                    </mxGeometry>
                </mxCell>
                <mxCell id="72" value="Обслуживание&#xa;кредитных&#xa;процессов" style="shape=partialRectangle;html=1;whiteSpace=wrap;connectable=0;strokeColor=inherit;overflow=hidden;fillColor=none;top=0;left=0;bottom=0;right=0;pointerEvents=1;" parent="66" vertex="1">
                    <mxGeometry x="779" width="156" height="99" as="geometry">
                        <mxRectangle width="156" height="99" as="alternateBounds"/>
                    </mxGeometry>
                </mxCell>
                <mxCell id="73" value="Управление&#xa;договорами" style="shape=partialRectangle;html=1;whiteSpace=wrap;connectable=0;strokeColor=inherit;overflow=hidden;fillColor=none;top=0;left=0;bottom=0;right=0;pointerEvents=1;" parent="66" vertex="1">
                    <mxGeometry x="935" width="155" height="99" as="geometry">
                        <mxRectangle width="155" height="99" as="alternateBounds"/>
                    </mxGeometry>
                </mxCell>
                <mxCell id="31" value="" style="shape=tableRow;horizontal=0;startSize=0;swimlaneHead=0;swimlaneBody=0;strokeColor=inherit;top=0;left=0;bottom=0;right=0;collapsible=0;dropTarget=0;fillColor=none;points=[[0,0.5],[1,0.5]];portConstraint=eastwest;" parent="30" vertex="1">
                    <mxGeometry y="99" width="1090" height="99" as="geometry"/>
                </mxCell>
                <mxCell id="32" value="Управление&#xa;обслуживанием&#xa;в сети отделений" style="shape=partialRectangle;html=1;whiteSpace=wrap;connectable=0;strokeColor=inherit;overflow=hidden;fillColor=none;top=0;left=0;bottom=0;right=0;pointerEvents=1;" parent="31" vertex="1">
                    <mxGeometry width="155" height="99" as="geometry">
                        <mxRectangle width="155" height="99" as="alternateBounds"/>
                    </mxGeometry>
                </mxCell>
                <mxCell id="33" value="" style="shape=partialRectangle;html=1;whiteSpace=wrap;connectable=0;strokeColor=inherit;overflow=hidden;fillColor=none;top=0;left=0;bottom=0;right=0;pointerEvents=1;" parent="31" vertex="1">
                    <mxGeometry x="155" width="157" height="99" as="geometry">
                        <mxRectangle width="157" height="99" as="alternateBounds"/>
                    </mxGeometry>
                </mxCell>
                <mxCell id="34" value="" style="shape=partialRectangle;html=1;whiteSpace=wrap;connectable=0;strokeColor=inherit;overflow=hidden;fillColor=none;top=0;left=0;bottom=0;right=0;pointerEvents=1;" parent="31" vertex="1">
                    <mxGeometry x="312" width="155" height="99" as="geometry">
                        <mxRectangle width="155" height="99" as="alternateBounds"/>
                    </mxGeometry>
                </mxCell>
                <mxCell id="35" value="" style="shape=partialRectangle;html=1;whiteSpace=wrap;connectable=0;strokeColor=inherit;overflow=hidden;fillColor=none;top=0;left=0;bottom=0;right=0;pointerEvents=1;" parent="31" vertex="1">
                    <mxGeometry x="467" width="156" height="99" as="geometry">
                        <mxRectangle width="156" height="99" as="alternateBounds"/>
                    </mxGeometry>
                </mxCell>
                <mxCell id="36" value="" style="shape=partialRectangle;html=1;whiteSpace=wrap;connectable=0;strokeColor=inherit;overflow=hidden;fillColor=none;top=0;left=0;bottom=0;right=0;pointerEvents=1;" parent="31" vertex="1">
                    <mxGeometry x="623" width="156" height="99" as="geometry">
                        <mxRectangle width="156" height="99" as="alternateBounds"/>
                    </mxGeometry>
                </mxCell>
                <mxCell id="37" value="" style="shape=partialRectangle;html=1;whiteSpace=wrap;connectable=0;strokeColor=inherit;overflow=hidden;fillColor=none;top=0;left=0;bottom=0;right=0;pointerEvents=1;" parent="31" vertex="1">
                    <mxGeometry x="779" width="156" height="99" as="geometry">
                        <mxRectangle width="156" height="99" as="alternateBounds"/>
                    </mxGeometry>
                </mxCell>
                <mxCell id="74" style="shape=partialRectangle;html=1;whiteSpace=wrap;connectable=0;strokeColor=inherit;overflow=hidden;fillColor=none;top=0;left=0;bottom=0;right=0;pointerEvents=1;" parent="31" vertex="1">
                    <mxGeometry x="935" width="155" height="99" as="geometry">
                        <mxRectangle width="155" height="99" as="alternateBounds"/>
                    </mxGeometry>
                </mxCell>
                <mxCell id="38" value="" style="shape=tableRow;horizontal=0;startSize=0;swimlaneHead=0;swimlaneBody=0;strokeColor=inherit;top=0;left=0;bottom=0;right=0;collapsible=0;dropTarget=0;fillColor=none;points=[[0,0.5],[1,0.5]];portConstraint=eastwest;" parent="30" vertex="1">
                    <mxGeometry y="198" width="1090" height="99" as="geometry"/>
                </mxCell>
                <mxCell id="39" value="Управление&#xa;обслуживанием&#xa;депозитных &#xa;продуктов" style="shape=partialRectangle;html=1;whiteSpace=wrap;connectable=0;strokeColor=inherit;overflow=hidden;fillColor=none;top=0;left=0;bottom=0;right=0;pointerEvents=1;" parent="38" vertex="1">
                    <mxGeometry width="155" height="99" as="geometry">
                        <mxRectangle width="155" height="99" as="alternateBounds"/>
                    </mxGeometry>
                </mxCell>
                <mxCell id="40" value="" style="shape=partialRectangle;html=1;whiteSpace=wrap;connectable=0;strokeColor=inherit;overflow=hidden;fillColor=none;top=0;left=0;bottom=0;right=0;pointerEvents=1;" parent="38" vertex="1">
                    <mxGeometry x="155" width="157" height="99" as="geometry">
                        <mxRectangle width="157" height="99" as="alternateBounds"/>
                    </mxGeometry>
                </mxCell>
                <mxCell id="41" value="" style="shape=partialRectangle;html=1;whiteSpace=wrap;connectable=0;strokeColor=inherit;overflow=hidden;fillColor=none;top=0;left=0;bottom=0;right=0;pointerEvents=1;" parent="38" vertex="1">
                    <mxGeometry x="312" width="155" height="99" as="geometry">
                        <mxRectangle width="155" height="99" as="alternateBounds"/>
                    </mxGeometry>
                </mxCell>
                <mxCell id="42" value="" style="shape=partialRectangle;html=1;whiteSpace=wrap;connectable=0;strokeColor=inherit;overflow=hidden;fillColor=none;top=0;left=0;bottom=0;right=0;pointerEvents=1;" parent="38" vertex="1">
                    <mxGeometry x="467" width="156" height="99" as="geometry">
                        <mxRectangle width="156" height="99" as="alternateBounds"/>
                    </mxGeometry>
                </mxCell>
                <mxCell id="43" value="" style="shape=partialRectangle;html=1;whiteSpace=wrap;connectable=0;strokeColor=inherit;overflow=hidden;fillColor=none;top=0;left=0;bottom=0;right=0;pointerEvents=1;" parent="38" vertex="1">
                    <mxGeometry x="623" width="156" height="99" as="geometry">
                        <mxRectangle width="156" height="99" as="alternateBounds"/>
                    </mxGeometry>
                </mxCell>
                <mxCell id="44" value="" style="shape=partialRectangle;html=1;whiteSpace=wrap;connectable=0;strokeColor=inherit;overflow=hidden;fillColor=none;top=0;left=0;bottom=0;right=0;pointerEvents=1;" parent="38" vertex="1">
                    <mxGeometry x="779" width="156" height="99" as="geometry">
                        <mxRectangle width="156" height="99" as="alternateBounds"/>
                    </mxGeometry>
                </mxCell>
                <mxCell id="75" style="shape=partialRectangle;html=1;whiteSpace=wrap;connectable=0;strokeColor=inherit;overflow=hidden;fillColor=none;top=0;left=0;bottom=0;right=0;pointerEvents=1;" parent="38" vertex="1">
                    <mxGeometry x="935" width="155" height="99" as="geometry">
                        <mxRectangle width="155" height="99" as="alternateBounds"/>
                    </mxGeometry>
                </mxCell>
                <mxCell id="45" value="" style="shape=tableRow;horizontal=0;startSize=0;swimlaneHead=0;swimlaneBody=0;strokeColor=inherit;top=0;left=0;bottom=0;right=0;collapsible=0;dropTarget=0;fillColor=none;points=[[0,0.5],[1,0.5]];portConstraint=eastwest;" parent="30" vertex="1">
                    <mxGeometry y="297" width="1090" height="193" as="geometry"/>
                </mxCell>
                <mxCell id="46" value="Управление&#xa;обслуживанием&#xa;кредитных&#xa;продуктов" style="shape=partialRectangle;html=1;whiteSpace=wrap;connectable=0;strokeColor=inherit;overflow=hidden;fillColor=none;top=0;left=0;bottom=0;right=0;pointerEvents=1;" parent="45" vertex="1">
                    <mxGeometry width="155" height="193" as="geometry">
                        <mxRectangle width="155" height="193" as="alternateBounds"/>
                    </mxGeometry>
                </mxCell>
                <mxCell id="47" value="" style="shape=partialRectangle;html=1;whiteSpace=wrap;connectable=0;strokeColor=inherit;overflow=hidden;fillColor=none;top=0;left=0;bottom=0;right=0;pointerEvents=1;" parent="45" vertex="1">
                    <mxGeometry x="155" width="157" height="193" as="geometry">
                        <mxRectangle width="157" height="193" as="alternateBounds"/>
                    </mxGeometry>
                </mxCell>
                <mxCell id="48" value="" style="shape=partialRectangle;html=1;whiteSpace=wrap;connectable=0;strokeColor=inherit;overflow=hidden;fillColor=none;top=0;left=0;bottom=0;right=0;pointerEvents=1;" parent="45" vertex="1">
                    <mxGeometry x="312" width="155" height="193" as="geometry">
                        <mxRectangle width="155" height="193" as="alternateBounds"/>
                    </mxGeometry>
                </mxCell>
                <mxCell id="49" value="" style="shape=partialRectangle;html=1;whiteSpace=wrap;connectable=0;strokeColor=inherit;overflow=hidden;fillColor=none;top=0;left=0;bottom=0;right=0;pointerEvents=1;" parent="45" vertex="1">
                    <mxGeometry x="467" width="156" height="193" as="geometry">
                        <mxRectangle width="156" height="193" as="alternateBounds"/>
                    </mxGeometry>
                </mxCell>
                <mxCell id="50" value="" style="shape=partialRectangle;html=1;whiteSpace=wrap;connectable=0;strokeColor=inherit;overflow=hidden;fillColor=none;top=0;left=0;bottom=0;right=0;pointerEvents=1;" parent="45" vertex="1">
                    <mxGeometry x="623" width="156" height="193" as="geometry">
                        <mxRectangle width="156" height="193" as="alternateBounds"/>
                    </mxGeometry>
                </mxCell>
                <mxCell id="51" value="" style="shape=partialRectangle;html=1;whiteSpace=wrap;connectable=0;strokeColor=inherit;overflow=hidden;fillColor=none;top=0;left=0;bottom=0;right=0;pointerEvents=1;" parent="45" vertex="1">
                    <mxGeometry x="779" width="156" height="193" as="geometry">
                        <mxRectangle width="156" height="193" as="alternateBounds"/>
                    </mxGeometry>
                </mxCell>
                <mxCell id="76" style="shape=partialRectangle;html=1;whiteSpace=wrap;connectable=0;strokeColor=inherit;overflow=hidden;fillColor=none;top=0;left=0;bottom=0;right=0;pointerEvents=1;" parent="45" vertex="1">
                    <mxGeometry x="935" width="155" height="193" as="geometry">
                        <mxRectangle width="155" height="193" as="alternateBounds"/>
                    </mxGeometry>
                </mxCell>
                <mxCell id="52" value="" style="shape=tableRow;horizontal=0;startSize=0;swimlaneHead=0;swimlaneBody=0;strokeColor=inherit;top=0;left=0;bottom=0;right=0;collapsible=0;dropTarget=0;fillColor=none;points=[[0,0.5],[1,0.5]];portConstraint=eastwest;" parent="30" vertex="1">
                    <mxGeometry y="490" width="1090" height="99" as="geometry"/>
                </mxCell>
                <mxCell id="53" value="Кол-центер" style="shape=partialRectangle;html=1;whiteSpace=wrap;connectable=0;strokeColor=inherit;overflow=hidden;fillColor=none;top=0;left=0;bottom=0;right=0;pointerEvents=1;" parent="52" vertex="1">
                    <mxGeometry width="155" height="99" as="geometry">
                        <mxRectangle width="155" height="99" as="alternateBounds"/>
                    </mxGeometry>
                </mxCell>
                <mxCell id="54" value="" style="shape=partialRectangle;html=1;whiteSpace=wrap;connectable=0;strokeColor=inherit;overflow=hidden;fillColor=none;top=0;left=0;bottom=0;right=0;pointerEvents=1;" parent="52" vertex="1">
                    <mxGeometry x="155" width="157" height="99" as="geometry">
                        <mxRectangle width="157" height="99" as="alternateBounds"/>
                    </mxGeometry>
                </mxCell>
                <mxCell id="55" value="" style="shape=partialRectangle;html=1;whiteSpace=wrap;connectable=0;strokeColor=inherit;overflow=hidden;fillColor=none;top=0;left=0;bottom=0;right=0;pointerEvents=1;" parent="52" vertex="1">
                    <mxGeometry x="312" width="155" height="99" as="geometry">
                        <mxRectangle width="155" height="99" as="alternateBounds"/>
                    </mxGeometry>
                </mxCell>
                <mxCell id="56" value="" style="shape=partialRectangle;html=1;whiteSpace=wrap;connectable=0;strokeColor=inherit;overflow=hidden;fillColor=none;top=0;left=0;bottom=0;right=0;pointerEvents=1;" parent="52" vertex="1">
                    <mxGeometry x="467" width="156" height="99" as="geometry">
                        <mxRectangle width="156" height="99" as="alternateBounds"/>
                    </mxGeometry>
                </mxCell>
                <mxCell id="57" value="" style="shape=partialRectangle;html=1;whiteSpace=wrap;connectable=0;strokeColor=inherit;overflow=hidden;fillColor=none;top=0;left=0;bottom=0;right=0;pointerEvents=1;" parent="52" vertex="1">
                    <mxGeometry x="623" width="156" height="99" as="geometry">
                        <mxRectangle width="156" height="99" as="alternateBounds"/>
                    </mxGeometry>
                </mxCell>
                <mxCell id="58" value="" style="shape=partialRectangle;html=1;whiteSpace=wrap;connectable=0;strokeColor=inherit;overflow=hidden;fillColor=none;top=0;left=0;bottom=0;right=0;pointerEvents=1;" parent="52" vertex="1">
                    <mxGeometry x="779" width="156" height="99" as="geometry">
                        <mxRectangle width="156" height="99" as="alternateBounds"/>
                    </mxGeometry>
                </mxCell>
                <mxCell id="77" style="shape=partialRectangle;html=1;whiteSpace=wrap;connectable=0;strokeColor=inherit;overflow=hidden;fillColor=none;top=0;left=0;bottom=0;right=0;pointerEvents=1;" parent="52" vertex="1">
                    <mxGeometry x="935" width="155" height="99" as="geometry">
                        <mxRectangle width="155" height="99" as="alternateBounds"/>
                    </mxGeometry>
                </mxCell>
                <mxCell id="177" style="shape=tableRow;horizontal=0;startSize=0;swimlaneHead=0;swimlaneBody=0;strokeColor=inherit;top=0;left=0;bottom=0;right=0;collapsible=0;dropTarget=0;fillColor=none;points=[[0,0.5],[1,0.5]];portConstraint=eastwest;" parent="30" vertex="1">
                    <mxGeometry y="589" width="1090" height="99" as="geometry"/>
                </mxCell>
                <mxCell id="178" value="ИТ-отдел" style="shape=partialRectangle;html=1;whiteSpace=wrap;connectable=0;strokeColor=inherit;overflow=hidden;fillColor=none;top=0;left=0;bottom=0;right=0;pointerEvents=1;" parent="177" vertex="1">
                    <mxGeometry width="155" height="99" as="geometry">
                        <mxRectangle width="155" height="99" as="alternateBounds"/>
                    </mxGeometry>
                </mxCell>
                <mxCell id="179" style="shape=partialRectangle;html=1;whiteSpace=wrap;connectable=0;strokeColor=inherit;overflow=hidden;fillColor=none;top=0;left=0;bottom=0;right=0;pointerEvents=1;" parent="177" vertex="1">
                    <mxGeometry x="155" width="157" height="99" as="geometry">
                        <mxRectangle width="157" height="99" as="alternateBounds"/>
                    </mxGeometry>
                </mxCell>
                <mxCell id="180" style="shape=partialRectangle;html=1;whiteSpace=wrap;connectable=0;strokeColor=inherit;overflow=hidden;fillColor=none;top=0;left=0;bottom=0;right=0;pointerEvents=1;" parent="177" vertex="1">
                    <mxGeometry x="312" width="155" height="99" as="geometry">
                        <mxRectangle width="155" height="99" as="alternateBounds"/>
                    </mxGeometry>
                </mxCell>
                <mxCell id="181" style="shape=partialRectangle;html=1;whiteSpace=wrap;connectable=0;strokeColor=inherit;overflow=hidden;fillColor=none;top=0;left=0;bottom=0;right=0;pointerEvents=1;" parent="177" vertex="1">
                    <mxGeometry x="467" width="156" height="99" as="geometry">
                        <mxRectangle width="156" height="99" as="alternateBounds"/>
                    </mxGeometry>
                </mxCell>
                <mxCell id="182" style="shape=partialRectangle;html=1;whiteSpace=wrap;connectable=0;strokeColor=inherit;overflow=hidden;fillColor=none;top=0;left=0;bottom=0;right=0;pointerEvents=1;" parent="177" vertex="1">
                    <mxGeometry x="623" width="156" height="99" as="geometry">
                        <mxRectangle width="156" height="99" as="alternateBounds"/>
                    </mxGeometry>
                </mxCell>
                <mxCell id="183" style="shape=partialRectangle;html=1;whiteSpace=wrap;connectable=0;strokeColor=inherit;overflow=hidden;fillColor=none;top=0;left=0;bottom=0;right=0;pointerEvents=1;" parent="177" vertex="1">
                    <mxGeometry x="779" width="156" height="99" as="geometry">
                        <mxRectangle width="156" height="99" as="alternateBounds"/>
                    </mxGeometry>
                </mxCell>
                <mxCell id="184" style="shape=partialRectangle;html=1;whiteSpace=wrap;connectable=0;strokeColor=inherit;overflow=hidden;fillColor=none;top=0;left=0;bottom=0;right=0;pointerEvents=1;" parent="177" vertex="1">
                    <mxGeometry x="935" width="155" height="99" as="geometry">
                        <mxRectangle width="155" height="99" as="alternateBounds"/>
                    </mxGeometry>
                </mxCell>
                <mxCell id="185" style="shape=tableRow;horizontal=0;startSize=0;swimlaneHead=0;swimlaneBody=0;strokeColor=inherit;top=0;left=0;bottom=0;right=0;collapsible=0;dropTarget=0;fillColor=none;points=[[0,0.5],[1,0.5]];portConstraint=eastwest;" parent="30" vertex="1">
                    <mxGeometry y="688" width="1090" height="99" as="geometry"/>
                </mxCell>
                <mxCell id="186" value="Команда цифровой трансформации розничного бизнеса" style="shape=partialRectangle;html=1;whiteSpace=wrap;connectable=0;strokeColor=inherit;overflow=hidden;fillColor=none;top=0;left=0;bottom=0;right=0;pointerEvents=1;" parent="185" vertex="1">
                    <mxGeometry width="155" height="99" as="geometry">
                        <mxRectangle width="155" height="99" as="alternateBounds"/>
                    </mxGeometry>
                </mxCell>
                <mxCell id="187" style="shape=partialRectangle;html=1;whiteSpace=wrap;connectable=0;strokeColor=inherit;overflow=hidden;fillColor=none;top=0;left=0;bottom=0;right=0;pointerEvents=1;" parent="185" vertex="1">
                    <mxGeometry x="155" width="157" height="99" as="geometry">
                        <mxRectangle width="157" height="99" as="alternateBounds"/>
                    </mxGeometry>
                </mxCell>
                <mxCell id="188" style="shape=partialRectangle;html=1;whiteSpace=wrap;connectable=0;strokeColor=inherit;overflow=hidden;fillColor=none;top=0;left=0;bottom=0;right=0;pointerEvents=1;" parent="185" vertex="1">
                    <mxGeometry x="312" width="155" height="99" as="geometry">
                        <mxRectangle width="155" height="99" as="alternateBounds"/>
                    </mxGeometry>
                </mxCell>
                <mxCell id="189" style="shape=partialRectangle;html=1;whiteSpace=wrap;connectable=0;strokeColor=inherit;overflow=hidden;fillColor=none;top=0;left=0;bottom=0;right=0;pointerEvents=1;" parent="185" vertex="1">
                    <mxGeometry x="467" width="156" height="99" as="geometry">
                        <mxRectangle width="156" height="99" as="alternateBounds"/>
                    </mxGeometry>
                </mxCell>
                <mxCell id="190" style="shape=partialRectangle;html=1;whiteSpace=wrap;connectable=0;strokeColor=inherit;overflow=hidden;fillColor=none;top=0;left=0;bottom=0;right=0;pointerEvents=1;" parent="185" vertex="1">
                    <mxGeometry x="623" width="156" height="99" as="geometry">
                        <mxRectangle width="156" height="99" as="alternateBounds"/>
                    </mxGeometry>
                </mxCell>
                <mxCell id="191" style="shape=partialRectangle;html=1;whiteSpace=wrap;connectable=0;strokeColor=inherit;overflow=hidden;fillColor=none;top=0;left=0;bottom=0;right=0;pointerEvents=1;" parent="185" vertex="1">
                    <mxGeometry x="779" width="156" height="99" as="geometry">
                        <mxRectangle width="156" height="99" as="alternateBounds"/>
                    </mxGeometry>
                </mxCell>
                <mxCell id="192" style="shape=partialRectangle;html=1;whiteSpace=wrap;connectable=0;strokeColor=inherit;overflow=hidden;fillColor=none;top=0;left=0;bottom=0;right=0;pointerEvents=1;" parent="185" vertex="1">
                    <mxGeometry x="935" width="155" height="99" as="geometry">
                        <mxRectangle width="155" height="99" as="alternateBounds"/>
                    </mxGeometry>
                </mxCell>
                <mxCell id="80" value="АБС" style="rounded=1;whiteSpace=wrap;html=1;fillColor=#dae8fc;strokeColor=#6c8ebf;strokeWidth=1;fontSize=20;" parent="1" vertex="1">
                    <mxGeometry x="720" y="330" width="120" height="65" as="geometry"/>
                </mxCell>
                <mxCell id="83" value="CRM" style="rounded=1;whiteSpace=wrap;html=1;fillColor=#f8cecc;strokeColor=#b85450;strokeWidth=1;fontSize=20;" parent="1" vertex="1">
                    <mxGeometry x="405" y="610" width="130" height="77" as="geometry"/>
                </mxCell>
                <mxCell id="85" value="СМС-шлюз" style="rounded=1;whiteSpace=wrap;html=1;fillColor=#d5e8d4;strokeColor=#82b366;strokeWidth=1;fontSize=20;" parent="1" vertex="1">
                    <mxGeometry x="557.5" y="330" width="135" height="65" as="geometry"/>
                </mxCell>
                <mxCell id="86" value="Кредитный конвейер" style="rounded=1;whiteSpace=wrap;html=1;fillColor=#ffe6cc;strokeColor=#d79b00;strokeWidth=1;fontSize=20;" parent="1" vertex="1">
                    <mxGeometry x="869" y="420" width="136" height="70" as="geometry"/>
                </mxCell>
                <mxCell id="88" value="АБС" style="rounded=1;whiteSpace=wrap;html=1;fillColor=#dae8fc;strokeColor=#6c8ebf;strokeWidth=1;fontSize=20;" parent="1" vertex="1">
                    <mxGeometry x="717" y="220" width="440" height="70" as="geometry"/>
                </mxCell>
                <mxCell id="108" style="edgeStyle=none;html=1;entryX=0.455;entryY=-0.004;entryDx=0;entryDy=0;entryPerimeter=0;" parent="1" source="90" target="113" edge="1">
                    <mxGeometry relative="1" as="geometry">
                        <mxPoint x="286" y="1295.6493506493507" as="targetPoint"/>
                    </mxGeometry>
                </mxCell>
                <mxCell id="135" value="Открыть счет&#xa;Сделать перевод&#xa;Открыть депозит&#xa;Заявка на кредит" style="edgeLabel;html=1;align=center;verticalAlign=middle;resizable=0;points=[];strokeColor=default;fillColor=default;" parent="108" vertex="1" connectable="0">
                    <mxGeometry x="0.3427" y="-1" relative="1" as="geometry">
                        <mxPoint x="-10" y="-6" as="offset"/>
                    </mxGeometry>
                </mxCell>
                <mxCell id="121" style="edgeStyle=none;html=1;" parent="1" source="90" target="97" edge="1">
                    <mxGeometry relative="1" as="geometry"/>
                </mxCell>
                <mxCell id="134" value="Открыть счет&#xa;Сделать перевод" style="edgeLabel;html=1;align=center;verticalAlign=middle;resizable=0;points=[];" parent="121" vertex="1" connectable="0">
                    <mxGeometry x="-0.0027" y="1" relative="1" as="geometry">
                        <mxPoint x="-1" y="40" as="offset"/>
                    </mxGeometry>
                </mxCell>
                <mxCell id="130" style="edgeStyle=none;html=1;" parent="1" source="90" target="117" edge="1">
                    <mxGeometry relative="1" as="geometry"/>
                </mxCell>
                <mxCell id="136" value="Заявка на депозит" style="edgeLabel;html=1;align=center;verticalAlign=middle;resizable=0;points=[];strokeColor=default;fontFamily=Helvetica;fontSize=12;fontColor=default;fillColor=default;" parent="130" vertex="1" connectable="0">
                    <mxGeometry x="0.3257" relative="1" as="geometry">
                        <mxPoint x="4" y="-2" as="offset"/>
                    </mxGeometry>
                </mxCell>
                <mxCell id="90" value="Клиент" style="shape=umlActor;verticalLabelPosition=bottom;verticalAlign=top;html=1;outlineConnect=0;fillColor=#d5e8d4;strokeColor=#82b366;" parent="1" vertex="1">
                    <mxGeometry x="395" y="1060" width="30" height="60" as="geometry"/>
                </mxCell>
                <mxCell id="122" style="edgeStyle=none;html=1;exitX=0.5;exitY=1;exitDx=0;exitDy=0;" parent="1" source="97" target="99" edge="1">
                    <mxGeometry relative="1" as="geometry"/>
                </mxCell>
                <mxCell id="138" value="Открыть счет&#xa;Сделать перевод" style="edgeLabel;html=1;align=center;verticalAlign=middle;resizable=0;points=[];strokeColor=default;fillColor=default;" parent="122" vertex="1" connectable="0">
                    <mxGeometry x="-0.0984" y="2" relative="1" as="geometry">
                        <mxPoint x="-10" as="offset"/>
                    </mxGeometry>
                </mxCell>
                <mxCell id="97" value="Интернет-банк" style="rounded=1;whiteSpace=wrap;html=1;" parent="1" vertex="1">
                    <mxGeometry x="350" y="1400" width="120" height="60" as="geometry"/>
                </mxCell>
                <mxCell id="98" value="Сайт" style="rounded=1;whiteSpace=wrap;html=1;" parent="1" vertex="1">
                    <mxGeometry x="130" y="1400" width="120" height="60" as="geometry"/>
                </mxCell>
                <mxCell id="124" value="&lt;div&gt;&lt;br&gt;&lt;/div&gt;&lt;div&gt;&lt;br&gt;&lt;/div&gt;" style="edgeStyle=none;html=1;exitX=0.5;exitY=1;exitDx=0;exitDy=0;entryX=0.5;entryY=0;entryDx=0;entryDy=0;dashed=1;" parent="1" source="99" target="101" edge="1">
                    <mxGeometry x="0.0242" y="11" relative="1" as="geometry">
                        <Array as="points">
                            <mxPoint x="530" y="1760"/>
                        </Array>
                        <mxPoint as="offset"/>
                    </mxGeometry>
                </mxCell>
                <mxCell id="170" value="Заявка&lt;br&gt;на кредит&lt;div&gt;(передача&lt;/div&gt;&lt;div&gt;раз в день, бд)&lt;/div&gt;" style="edgeLabel;html=1;align=center;verticalAlign=middle;resizable=0;points=[];pointerEvents=1;strokeColor=inherit;fillColor=none;" parent="124" vertex="1" connectable="0">
                    <mxGeometry x="0.0032" y="7" relative="1" as="geometry">
                        <mxPoint x="-8" y="-2" as="offset"/>
                    </mxGeometry>
                </mxCell>
                <mxCell id="128" style="edgeStyle=none;html=1;" parent="1" source="99" target="104" edge="1">
                    <mxGeometry relative="1" as="geometry">
                        <mxPoint x="310" y="1510" as="sourcePoint"/>
                    </mxGeometry>
                </mxCell>
                <mxCell id="157" value="Одобрение&#xa;депозита" style="edgeLabel;html=1;align=center;verticalAlign=middle;resizable=0;points=[];strokeColor=default;fillColor=default;" parent="128" vertex="1" connectable="0">
                    <mxGeometry x="-0.0899" y="1" relative="1" as="geometry">
                        <mxPoint x="-2" y="-4" as="offset"/>
                    </mxGeometry>
                </mxCell>
                <mxCell id="145" style="edgeStyle=none;html=1;fontFamily=Helvetica;fontSize=12;fontColor=default;" parent="1" source="116" target="99" edge="1">
                    <mxGeometry relative="1" as="geometry">
                        <mxPoint x="780" y="1530" as="sourcePoint"/>
                    </mxGeometry>
                </mxCell>
                <mxCell id="146" value="Обработка заявок&lt;br&gt;на депозит" style="edgeLabel;html=1;align=center;verticalAlign=middle;resizable=0;points=[];strokeColor=default;fillColor=default;" parent="145" vertex="1" connectable="0">
                    <mxGeometry x="0.2838" y="2" relative="1" as="geometry">
                        <mxPoint x="22" y="-2" as="offset"/>
                    </mxGeometry>
                </mxCell>
                <mxCell id="197" style="edgeStyle=none;shape=connector;rounded=1;html=1;strokeColor=default;align=center;verticalAlign=middle;fontFamily=Helvetica;fontSize=12;fontColor=default;labelBackgroundColor=default;resizable=0;endArrow=classic;dashed=1;" parent="1" source="99" target="102" edge="1">
                    <mxGeometry relative="1" as="geometry"/>
                </mxCell>
                <mxCell id="198" value="Данные клиента&lt;br&gt;История платежей по кредитам&lt;br&gt;(раз в день, бд&lt;span style=&quot;color: rgb(63, 63, 63); background-color: light-dark(#ffffff, var(--ge-dark-color, #121212));&quot;&gt;)&lt;/span&gt;" style="edgeLabel;html=1;align=center;verticalAlign=middle;resizable=0;points=[];strokeColor=default;fillColor=default;gradientColor=none;" parent="197" vertex="1" connectable="0">
                    <mxGeometry x="0.3493" y="-4" relative="1" as="geometry">
                        <mxPoint x="25" y="-11" as="offset"/>
                    </mxGeometry>
                </mxCell>
                <mxCell id="99" value="АБС" style="rounded=1;whiteSpace=wrap;html=1;" parent="1" vertex="1">
                    <mxGeometry x="540" y="1590" width="120" height="60" as="geometry"/>
                </mxCell>
                <mxCell id="126" style="edgeStyle=none;html=1;" parent="1" source="101" target="102" edge="1">
                    <mxGeometry relative="1" as="geometry"/>
                </mxCell>
                <mxCell id="169" value="Оценка&#xa;клиента" style="edgeLabel;html=1;align=center;verticalAlign=middle;resizable=0;points=[];pointerEvents=1;strokeColor=inherit;fillColor=none;" parent="126" vertex="1" connectable="0">
                    <mxGeometry x="-0.1919" y="4" relative="1" as="geometry">
                        <mxPoint x="-8" y="-4" as="offset"/>
                    </mxGeometry>
                </mxCell>
                <mxCell id="147" style="edgeStyle=none;html=1;fontFamily=Helvetica;fontSize=12;fontColor=default;" parent="1" source="115" target="101" edge="1">
                    <mxGeometry relative="1" as="geometry">
                        <mxPoint x="720" y="1830" as="sourcePoint"/>
                    </mxGeometry>
                </mxCell>
                <mxCell id="149" value="Обработка заявок&#xa;на кредит" style="edgeLabel;html=1;align=center;verticalAlign=middle;resizable=0;points=[];strokeColor=default;fillColor=default;" parent="147" vertex="1" connectable="0">
                    <mxGeometry x="-0.1033" y="3" relative="1" as="geometry">
                        <mxPoint x="-6" y="-3" as="offset"/>
                    </mxGeometry>
                </mxCell>
                <mxCell id="171" style="edgeStyle=none;html=1;fontFamily=Helvetica;fontSize=12;fontColor=default;dashed=1;" parent="1" source="101" target="99" edge="1">
                    <mxGeometry relative="1" as="geometry">
                        <Array as="points">
                            <mxPoint x="670" y="1760"/>
                        </Array>
                    </mxGeometry>
                </mxCell>
                <mxCell id="172" value="&lt;br&gt;Передача статусов&lt;div&gt;Для зачисление&lt;br&gt;кредитных денег&lt;/div&gt;&lt;div&gt;(раз в день, крон&lt;span style=&quot;color: rgb(63, 63, 63); background-color: light-dark(#ffffff, var(--ge-dark-color, #121212));&quot;&gt;)&lt;/span&gt;&lt;/div&gt;" style="edgeLabel;html=1;align=center;verticalAlign=middle;resizable=0;points=[];pointerEvents=1;strokeColor=inherit;fillColor=none;" parent="171" vertex="1" connectable="0">
                    <mxGeometry x="-0.0109" y="-5" relative="1" as="geometry">
                        <mxPoint as="offset"/>
                    </mxGeometry>
                </mxCell>
                <mxCell id="101" value="Кредитный конвейер" style="rounded=1;whiteSpace=wrap;html=1;" parent="1" vertex="1">
                    <mxGeometry x="535" y="1840" width="120" height="60" as="geometry"/>
                </mxCell>
                <mxCell id="127" style="edgeStyle=none;html=1;exitX=0;exitY=0.5;exitDx=0;exitDy=0;" parent="1" source="102" target="103" edge="1">
                    <mxGeometry relative="1" as="geometry"/>
                </mxCell>
                <mxCell id="151" value="&lt;span style=&quot;color: rgb(0, 0, 0);&quot;&gt;getData&lt;/span&gt;" style="edgeLabel;html=1;align=center;verticalAlign=middle;resizable=0;points=[];strokeColor=default;fontFamily=Helvetica;fontSize=12;fontColor=default;fillColor=default;" parent="127" vertex="1" connectable="0">
                    <mxGeometry x="0.0286" y="-2" relative="1" as="geometry">
                        <mxPoint as="offset"/>
                    </mxGeometry>
                </mxCell>
                <mxCell id="102" value="Система кредитного скоринга" style="rounded=1;whiteSpace=wrap;html=1;" parent="1" vertex="1">
                    <mxGeometry x="276" y="1730" width="110" height="60" as="geometry"/>
                </mxCell>
                <mxCell id="103" value="Бюро кредитных историй" style="rounded=1;whiteSpace=wrap;html=1;fillColor=#f5f5f5;fontColor=#333333;strokeColor=#666666;" parent="1" vertex="1">
                    <mxGeometry x="80" y="1730" width="110" height="60" as="geometry"/>
                </mxCell>
                <mxCell id="129" style="edgeStyle=none;html=1;exitX=0;exitY=0.5;exitDx=0;exitDy=0;" parent="1" source="104" target="105" edge="1">
                    <mxGeometry relative="1" as="geometry"/>
                </mxCell>
                <mxCell id="104" value="SMS-шлюз" style="rounded=1;whiteSpace=wrap;html=1;" parent="1" vertex="1">
                    <mxGeometry x="276" y="1590" width="110" height="60" as="geometry"/>
                </mxCell>
                <mxCell id="105" value="Телеком-оператор" style="rounded=1;whiteSpace=wrap;html=1;fillColor=#f5f5f5;fontColor=#333333;strokeColor=#666666;" parent="1" vertex="1">
                    <mxGeometry x="80" y="1590" width="110" height="60" as="geometry"/>
                </mxCell>
                <mxCell id="132" style="edgeStyle=none;html=1;" parent="1" source="106" target="99" edge="1">
                    <mxGeometry relative="1" as="geometry"/>
                </mxCell>
                <mxCell id="153" value="&lt;span style=&quot;color: rgb(0, 0, 0);&quot;&gt;Заявка на депозит&lt;/span&gt;" style="edgeLabel;html=1;align=center;verticalAlign=middle;resizable=0;points=[];strokeColor=default;fontFamily=Helvetica;fontSize=12;fontColor=default;fillColor=default;" parent="132" vertex="1" connectable="0">
                    <mxGeometry x="0.1258" y="2" relative="1" as="geometry">
                        <mxPoint x="3" y="-15" as="offset"/>
                    </mxGeometry>
                </mxCell>
                <mxCell id="106" value="CRM" style="rounded=1;whiteSpace=wrap;html=1;" parent="1" vertex="1">
                    <mxGeometry x="545" y="1400" width="110" height="60" as="geometry"/>
                </mxCell>
                <mxCell id="111" style="edgeStyle=none;html=1;" parent="1" source="90" target="98" edge="1">
                    <mxGeometry relative="1" as="geometry"/>
                </mxCell>
                <mxCell id="133" value="Получить&#xa;информацию" style="edgeLabel;html=1;align=center;verticalAlign=middle;resizable=0;points=[];" parent="111" vertex="1" connectable="0">
                    <mxGeometry x="0.4367" y="2" relative="1" as="geometry">
                        <mxPoint x="13" y="-20" as="offset"/>
                    </mxGeometry>
                </mxCell>
                <mxCell id="123" style="edgeStyle=none;html=1;exitX=0.5;exitY=1;exitDx=0;exitDy=0;" parent="1" source="113" target="99" edge="1">
                    <mxGeometry relative="1" as="geometry"/>
                </mxCell>
                <mxCell id="142" value="&lt;span style=&quot;font-family: monospace; font-size: 0px; text-align: start; background-color: rgb(251, 251, 251);&quot;&gt;%3CmxGraphModel%3E%3Croot%3E%3CmxCell%20id%3D%220%22%2F%3E%3CmxCell%20id%3D%221%22%20parent%3D%220%22%2F%3E%3CmxCell%20id%3D%222%22%20value%3D%22%D0%9E%D1%82%D0%BA%D1%80%D1%8B%D1%82%D1%8C%20%D1%81%D1%87%D0%B5%D1%82%26%2310%3B%D0%A1%D0%B4%D0%B5%D0%BB%D0%B0%D1%82%D1%8C%20%D0%BF%D0%B5%D1%80%D0%B5%D0%B2%D0%BE%D0%B4%26%2310%3B%D0%97%D0%B0%D1%8F%D0%B2%D0%BA%D0%B0%20%D0%BD%D0%B0%20%D0%B4%D0%B5%D0%BF%D0%BE%D0%B7%D0%B8%D1%82%26%2310%3B%D0%97%D0%B0%D1%8F%D0%B2%D0%BA%D0%B0%20%D0%BD%D0%B0%20%D0%BA%D1%80%D0%B5%D0%B4%D0%B8%D1%82%22%20style%3D%22edgeLabel%3Bhtml%3D1%3Balign%3Dcenter%3BverticalAlign%3Dmiddle%3Bresizable%3D0%3Bpoints%3D%5B%5D%3BstrokeColor%3Ddefault%3BfillColor%3Ddefault%3B%22%20vertex%3D%221%22%20connectable%3D%220%22%20parent%3D%221%22%3E%3CmxGeometry%20x%3D%22979.534685683218%22%20y%3D%22990.2360291703151%22%20as%3D%22geometry%22%2F%3E%3C%2FmxCell%3E%3C%2Froot%3E%3C%2FmxGraphModel%3E&lt;/span&gt;" style="edgeLabel;html=1;align=center;verticalAlign=middle;resizable=0;points=[];strokeColor=default;fontFamily=Helvetica;fontSize=12;fontColor=default;fillColor=default;" parent="123" vertex="1" connectable="0">
                    <mxGeometry x="-0.4392" y="-2" relative="1" as="geometry">
                        <mxPoint as="offset"/>
                    </mxGeometry>
                </mxCell>
                <mxCell id="143" value="&lt;div&gt;&lt;font color=&quot;#000000&quot;&gt;Открыть счет&lt;/font&gt;&lt;/div&gt;&lt;div&gt;&lt;font color=&quot;#000000&quot;&gt;Сделать перевод&lt;/font&gt;&lt;/div&gt;&lt;div&gt;&lt;font color=&quot;#000000&quot;&gt;Открыть депозит&lt;/font&gt;&lt;/div&gt;&lt;div&gt;&lt;font color=&quot;#000000&quot;&gt;Получить одобренные депозиты&lt;/font&gt;&lt;/div&gt;&lt;div&gt;&lt;font color=&quot;#000000&quot;&gt;Загрузить документы&lt;/font&gt;&lt;/div&gt;&lt;div&gt;&lt;font color=&quot;#000000&quot;&gt;Заявка на кредит&lt;/font&gt;&lt;/div&gt;" style="edgeLabel;html=1;align=center;verticalAlign=middle;resizable=0;points=[];strokeColor=default;fillColor=default;" parent="123" vertex="1" connectable="0">
                    <mxGeometry x="-0.5569" y="-3" relative="1" as="geometry">
                        <mxPoint x="-88" y="100" as="offset"/>
                    </mxGeometry>
                </mxCell>
                <mxCell id="154" style="edgeStyle=none;html=1;fontFamily=Helvetica;fontSize=12;fontColor=default;" parent="1" source="113" target="116" edge="1">
                    <mxGeometry relative="1" as="geometry"/>
                </mxCell>
                <mxCell id="155" value="&lt;span style=&quot;font-family: monospace; font-size: 0px; text-align: start; background-color: rgb(251, 251, 251);&quot;&gt;%3CmxGraphModel%3E%3Croot%3E%3CmxCell%20id%3D%220%22%2F%3E%3CmxCell%20id%3D%221%22%20parent%3D%220%22%2F%3E%3CmxCell%20id%3D%222%22%20value%3D%22%D0%97%D0%B0%D1%8F%D0%B2%D0%BA%D0%B0%20%D0%BD%D0%B0%20%D0%B4%D0%B5%D0%BF%D0%BE%D0%B7%D0%B8%D1%82%22%20style%3D%22edgeLabel%3Bhtml%3D1%3Balign%3Dcenter%3BverticalAlign%3Dmiddle%3Bresizable%3D0%3Bpoints%3D%5B%5D%3BstrokeColor%3Ddefault%3BfontFamily%3DHelvetica%3BfontSize%3D12%3BfontColor%3Ddefault%3BfillColor%3Ddefault%3B%22%20vertex%3D%221%22%20connectable%3D%220%22%20parent%3D%221%22%3E%3CmxGeometry%20x%3D%221250.640061815518%22%20y%3D%221154.2651380218122%22%20as%3D%22geometry%22%2F%3E%3C%2FmxCell%3E%3C%2Froot%3E%3C%2FmxGraphModel%3E&lt;/span&gt;" style="edgeLabel;html=1;align=center;verticalAlign=middle;resizable=0;points=[];strokeColor=default;fontFamily=Helvetica;fontSize=12;fontColor=default;fillColor=default;" parent="154" vertex="1" connectable="0">
                    <mxGeometry x="-0.2849" y="-4" relative="1" as="geometry">
                        <mxPoint as="offset"/>
                    </mxGeometry>
                </mxCell>
                <mxCell id="156" value="Заявка&lt;br&gt;на депозит&lt;div&gt;(получить решение&lt;/div&gt;&lt;div&gt;по email)&lt;/div&gt;" style="edgeLabel;html=1;align=center;verticalAlign=middle;resizable=0;points=[];strokeColor=default;fillColor=default;" parent="154" vertex="1" connectable="0">
                    <mxGeometry x="-0.239" y="-1" relative="1" as="geometry">
                        <mxPoint x="1" y="28" as="offset"/>
                    </mxGeometry>
                </mxCell>
                <mxCell id="113" value="&lt;div style=&quot;color: rgb(63, 63, 63); scrollbar-color: rgb(226, 226, 226) rgb(251, 251, 251); text-wrap-mode: nowrap;&quot;&gt;&lt;div style=&quot;color: rgb(63, 63, 63); scrollbar-color: rgb(226, 226, 226) rgb(251, 251, 251);&quot;&gt;Управление&lt;/div&gt;&lt;div style=&quot;color: rgb(63, 63, 63); scrollbar-color: rgb(226, 226, 226) rgb(251, 251, 251);&quot;&gt;обслуживанием&lt;/div&gt;&lt;div style=&quot;color: rgb(63, 63, 63); scrollbar-color: rgb(226, 226, 226) rgb(251, 251, 251);&quot;&gt;в сети отделений&lt;/div&gt;&lt;/div&gt;" style="ellipse;whiteSpace=wrap;html=1;fillColor=#f8cecc;strokeColor=#b85450;" parent="1" vertex="1">
                    <mxGeometry x="820" y="1230" width="160" height="80" as="geometry"/>
                </mxCell>
                <mxCell id="193" style="edgeStyle=none;shape=connector;rounded=1;html=1;strokeColor=default;align=center;verticalAlign=middle;fontFamily=Helvetica;fontSize=11;fontColor=default;labelBackgroundColor=default;resizable=0;endArrow=classic;" parent="1" source="115" target="99" edge="1">
                    <mxGeometry relative="1" as="geometry"/>
                </mxCell>
                <mxCell id="194" value="Расчет кредитного&#xa;риска" style="edgeLabel;html=1;align=center;verticalAlign=middle;resizable=0;points=[];strokeColor=default;fillColor=default;gradientColor=none;" parent="193" vertex="1" connectable="0">
                    <mxGeometry x="-0.3615" y="1" relative="1" as="geometry">
                        <mxPoint as="offset"/>
                    </mxGeometry>
                </mxCell>
                <mxCell id="195" style="edgeStyle=none;shape=connector;rounded=1;html=1;strokeColor=default;align=center;verticalAlign=middle;fontFamily=Helvetica;fontSize=11;fontColor=default;labelBackgroundColor=default;resizable=0;endArrow=classic;" parent="1" source="115" target="116" edge="1">
                    <mxGeometry relative="1" as="geometry">
                        <Array as="points">
                            <mxPoint x="1060" y="1790"/>
                            <mxPoint x="1060" y="1700"/>
                        </Array>
                    </mxGeometry>
                </mxCell>
                <mxCell id="196" value="&lt;div&gt;&lt;font color=&quot;#000000&quot;&gt;Ежедневная передача&lt;/font&gt;&lt;/div&gt;&lt;div&gt;&lt;font color=&quot;#000000&quot;&gt;по email показателей&lt;/font&gt;&lt;/div&gt;&lt;div&gt;&lt;font color=&quot;#000000&quot;&gt;для расчета депозита&lt;/font&gt;&lt;/div&gt;" style="edgeLabel;html=1;align=center;verticalAlign=middle;resizable=0;points=[];strokeColor=default;fontFamily=Helvetica;fontSize=11;fontColor=default;labelBackgroundColor=default;fillColor=default;gradientColor=none;" parent="195" vertex="1" connectable="0">
                    <mxGeometry x="0.0612" y="1" relative="1" as="geometry">
                        <mxPoint as="offset"/>
                    </mxGeometry>
                </mxCell>
                <mxCell id="115" value="&lt;div style=&quot;color: rgb(63, 63, 63); scrollbar-color: rgb(226, 226, 226) rgb(251, 251, 251); text-wrap-mode: nowrap;&quot;&gt;&lt;div style=&quot;color: rgb(63, 63, 63); scrollbar-color: rgb(226, 226, 226) rgb(251, 251, 251);&quot;&gt;&lt;div style=&quot;scrollbar-color: rgb(226, 226, 226) rgb(251, 251, 251); color: rgb(63, 63, 63);&quot;&gt;Управление&lt;/div&gt;&lt;div style=&quot;scrollbar-color: rgb(226, 226, 226) rgb(251, 251, 251); color: rgb(63, 63, 63);&quot;&gt;обслуживанием&lt;/div&gt;&lt;div style=&quot;scrollbar-color: rgb(226, 226, 226) rgb(251, 251, 251); color: rgb(63, 63, 63);&quot;&gt;&lt;/div&gt;&lt;div style=&quot;scrollbar-color: rgb(226, 226, 226) rgb(251, 251, 251); color: rgb(63, 63, 63);&quot;&gt;&lt;span style=&quot;color: rgb(63, 63, 63);&quot;&gt;кредитных&lt;/span&gt;&lt;/div&gt;&lt;div style=&quot;scrollbar-color: rgb(226, 226, 226) rgb(251, 251, 251); color: rgb(63, 63, 63);&quot;&gt;продуктов&lt;/div&gt;&lt;/div&gt;&lt;/div&gt;" style="ellipse;whiteSpace=wrap;html=1;fillColor=#f8cecc;strokeColor=#b85450;" parent="1" vertex="1">
                    <mxGeometry x="820" y="1830" width="160" height="80" as="geometry"/>
                </mxCell>
                <mxCell id="158" style="edgeStyle=none;html=1;fontFamily=Helvetica;fontSize=12;fontColor=default;" parent="1" source="116" target="115" edge="1">
                    <mxGeometry relative="1" as="geometry"/>
                </mxCell>
                <mxCell id="159" value="Получение&#xa;кредитного риска &#xa;для депозита&#xa;с индивидуальным&#xa;условием" style="edgeLabel;html=1;align=center;verticalAlign=middle;resizable=0;points=[];strokeColor=default;fillColor=default;" parent="158" vertex="1" connectable="0">
                    <mxGeometry x="-0.2412" y="2" relative="1" as="geometry">
                        <mxPoint x="-2" y="15" as="offset"/>
                    </mxGeometry>
                </mxCell>
                <mxCell id="116" value="&lt;div style=&quot;color: rgb(63, 63, 63); scrollbar-color: rgb(226, 226, 226) rgb(251, 251, 251); text-wrap-mode: nowrap;&quot;&gt;&lt;div style=&quot;color: rgb(63, 63, 63); scrollbar-color: rgb(226, 226, 226) rgb(251, 251, 251);&quot;&gt;&lt;div style=&quot;scrollbar-color: rgb(226, 226, 226) rgb(251, 251, 251); color: rgb(63, 63, 63);&quot;&gt;Управление&lt;/div&gt;&lt;div style=&quot;scrollbar-color: rgb(226, 226, 226) rgb(251, 251, 251); color: rgb(63, 63, 63);&quot;&gt;обслуживанием&lt;/div&gt;&lt;div style=&quot;scrollbar-color: rgb(226, 226, 226) rgb(251, 251, 251); color: rgb(63, 63, 63);&quot;&gt;&lt;span style=&quot;color: rgb(63, 63, 63);&quot;&gt;депозитных&lt;/span&gt;&lt;/div&gt;&lt;div style=&quot;scrollbar-color: rgb(226, 226, 226) rgb(251, 251, 251); color: rgb(63, 63, 63);&quot;&gt;продуктов&lt;/div&gt;&lt;/div&gt;&lt;/div&gt;" style="ellipse;whiteSpace=wrap;html=1;fillColor=#f8cecc;strokeColor=#b85450;" parent="1" vertex="1">
                    <mxGeometry x="820" y="1580" width="160" height="80" as="geometry"/>
                </mxCell>
                <mxCell id="131" style="edgeStyle=none;html=1;exitX=0.5;exitY=1;exitDx=0;exitDy=0;" parent="1" source="117" target="106" edge="1">
                    <mxGeometry relative="1" as="geometry"/>
                </mxCell>
                <mxCell id="152" value="Заявка на депозит" style="edgeLabel;html=1;align=center;verticalAlign=middle;resizable=0;points=[];strokeColor=default;fontFamily=Helvetica;fontSize=12;fontColor=default;fillColor=default;" parent="131" vertex="1" connectable="0">
                    <mxGeometry x="-0.189" y="1" relative="1" as="geometry">
                        <mxPoint as="offset"/>
                    </mxGeometry>
                </mxCell>
                <mxCell id="117" value="&lt;div style=&quot;scrollbar-color: rgb(226, 226, 226) rgb(251, 251, 251); color: rgb(63, 63, 63);&quot;&gt;&lt;div style=&quot;scrollbar-color: rgb(226, 226, 226) rgb(251, 251, 251); color: rgb(63, 63, 63);&quot;&gt;&lt;span style=&quot;text-wrap-mode: nowrap;&quot;&gt;Кол-центр&lt;/span&gt;&lt;/div&gt;&lt;/div&gt;" style="ellipse;whiteSpace=wrap;html=1;fillColor=#f8cecc;strokeColor=#b85450;" parent="1" vertex="1">
                    <mxGeometry x="520" y="1230" width="160" height="80" as="geometry"/>
                </mxCell>
                <mxCell id="173" value="Система кредитного скоринга" style="rounded=1;whiteSpace=wrap;html=1;fillColor=#ffe6cc;strokeColor=#d79b00;strokeWidth=1;fontSize=20;" parent="1" vertex="1">
                    <mxGeometry x="869" y="505" width="136" height="80" as="geometry"/>
                </mxCell>
                <mxCell id="175" value="&lt;h1&gt;Карта текущего IT-ландшафта&lt;/h1&gt;" style="text;html=1;align=center;verticalAlign=middle;resizable=0;points=[];autosize=1;strokeColor=none;fillColor=none;" parent="1" vertex="1">
                    <mxGeometry x="80" y="20" width="390" height="70" as="geometry"/>
                </mxCell>
                <mxCell id="176" value="&lt;h1&gt;Схема интеграции приложений&lt;/h1&gt;" style="text;html=1;align=center;verticalAlign=middle;resizable=0;points=[];autosize=1;strokeColor=none;fillColor=none;" parent="1" vertex="1">
                    <mxGeometry x="80" y="960" width="400" height="70" as="geometry"/>
                </mxCell>
            </root>
        </mxGraphModel>
    </diagram>
</mxfile>